<?xml version="1.0" encoding="utf-8"?>
<!-- Generator: Adobe Illustrator 23.0.0, SVG Export Plug-In . SVG Version: 6.00 Build 0)  -->
<svg version="1.1" id="Layer_1" xmlns="http://www.w3.org/2000/svg" xmlns:xlink="http://www.w3.org/1999/xlink" x="0px" y="0px"
	 viewBox="0 0 139.46 139.46" style="enable-background:new 0 0 139.46 139.46;" xml:space="preserve">
<style type="text/css">
	.st0{fill:#264F36;}
	.st1{fill:#FFBC0D;}
</style>
<path class="st0" d="M12.08,139.46c0,0-12.08,0-12.08-12.08V12.08C0,12.08,0,0,12.08,0h115.3c0,0,12.08,0,12.08,12.08v115.3
	c0,0,0,12.08-12.08,12.08H12.08z"/>
<g>
	<path class="st1" d="M89.99,28.66c-8.18,0-15.48,10.9-20.25,27.95c-4.77-17.04-12.07-27.95-20.25-27.95
		c-14.38,0-26.04,36.27-26.04,81.01h11.58c0-41.54,6.48-75.22,14.47-75.22c7.99,0,14.47,31.09,14.47,69.44h11.57
		c0-38.35,6.48-69.44,14.47-69.44c7.99,0,14.47,33.68,14.47,75.22h11.57C116.03,64.93,104.37,28.66,89.99,28.66z"/>
</g>
</svg>
